<svg xmlns="http://www.w3.org/2000/svg" viewBox="0 0 52 52"><defs><style>.cls-1{fill:#fff;}.cls-2{fill:#1f5aab;}</style></defs><g id="Layer_2" data-name="Layer 2"><g id="Layer_1-2" data-name="Layer 1"><circle class="cls-1" cx="26" cy="26" r="26"/><path class="cls-2" d="M29.33,32.55a1.18,1.18,0,0,0,.27-.4,1.27,1.27,0,0,0,.09-.47,1.28,1.28,0,0,0-.09-.48,1.18,1.18,0,0,0-.27-.4L24.53,26l4.8-4.8a1.27,1.27,0,0,0,.36-.88,1.24,1.24,0,0,0-.36-.87,1.23,1.23,0,0,0-1.74,0L21.9,25.13a1.56,1.56,0,0,0-.27.4,1.28,1.28,0,0,0-.09.48,1.27,1.27,0,0,0,.09.47,1.56,1.56,0,0,0,.27.4l5.69,5.68A1.24,1.24,0,0,0,29.33,32.55Z"/></g></g></svg>