<svg xmlns="http://www.w3.org/2000/svg" viewBox="0 0 52 52"><defs><style>.cls-1{fill:none;stroke:#fff;stroke-width:2px;}.cls-2{fill:#fff;}</style></defs><g id="Layer_2" data-name="Layer 2"><g id="Layer_1-2" data-name="Layer 1"><circle class="cls-1" cx="26" cy="26" r="25"/><path class="cls-2" d="M22.67,32.55a1.18,1.18,0,0,1-.27-.4,1.27,1.27,0,0,1-.09-.47,1.28,1.28,0,0,1,.09-.48,1.18,1.18,0,0,1,.27-.4l4.8-4.8-4.8-4.8a1.27,1.27,0,0,1-.36-.88,1.24,1.24,0,0,1,.36-.87,1.23,1.23,0,0,1,1.74,0l5.69,5.68a1.56,1.56,0,0,1,.27.4,1.28,1.28,0,0,1,.09.48,1.27,1.27,0,0,1-.09.47,1.56,1.56,0,0,1-.27.4l-5.69,5.68A1.24,1.24,0,0,1,22.67,32.55Z"/></g></g></svg>