<svg width="9" height="14" viewBox="0 0 9 14" fill="none" xmlns="http://www.w3.org/2000/svg">
<path d="M8.07225 0.478635C8.18703 0.593176 8.27809 0.729228 8.34022 0.879005C8.40235 1.02878 8.43433 1.18934 8.43433 1.35149C8.43433 1.51364 8.40235 1.6742 8.34022 1.82398C8.27809 1.97376 8.18703 2.10981 8.07225 2.22435L3.26844 7.02816L8.07225 11.832C8.30375 12.0635 8.4338 12.3774 8.4338 12.7048C8.4338 13.0322 8.30375 13.3462 8.07225 13.5777C7.84076 13.8092 7.52678 13.9392 7.1994 13.9392C6.87201 13.9392 6.55803 13.8092 6.32654 13.5777L0.643681 7.89483C0.528905 7.78029 0.437846 7.64423 0.375717 7.49446C0.313587 7.34468 0.281608 7.18412 0.281608 7.02197C0.281608 6.85982 0.313587 6.69926 0.375717 6.54948C0.437846 6.39971 0.528905 6.26365 0.643681 6.14911L6.32654 0.466254C6.79701 -0.00422256 7.5894 -0.00422226 8.07225 0.478635Z" fill="#B3B3B3"/>
</svg>
